<svg width="30" height="30" viewBox="0 0 30 30" fill="none" xmlns="http://www.w3.org/2000/svg">
<g id="Icon/Outline/home">
<path id="Mask" fill-rule="evenodd" clip-rule="evenodd" d="M23.7377 25H20.0002V16.2501C20.0002 15.5588 19.4402 15.0001 18.7502 15.0001H11.2502C10.559 15.0001 10.0002 15.5588 10.0002 16.2501V25H6.25024L6.25774 14.4788L14.9977 5.54005L23.7502 14.5301L23.7377 25ZM12.5002 25.0001H17.5002V17.5001H12.5002V25.0001ZM25.5302 12.7313L15.894 2.87632C15.4227 2.39507 14.5777 2.39507 14.1065 2.87632L4.46899 12.7326C4.01274 13.2013 3.75024 13.8563 3.75024 14.5301V25.0001C3.75024 26.3788 4.80899 27.5001 6.11024 27.5001H11.2502H18.7502H23.889C25.1902 27.5001 26.2502 26.3788 26.2502 25.0001V14.5301C26.2502 13.8563 25.9877 13.2013 25.5302 12.7313Z" fill="#231F20"/>
<mask id="mask0" mask-type="alpha" maskUnits="userSpaceOnUse" x="3" y="2" width="24" height="26">
<path id="Mask_2" fill-rule="evenodd" clip-rule="evenodd" d="M23.7377 25H20.0002V16.2501C20.0002 15.5588 19.4402 15.0001 18.7502 15.0001H11.2502C10.559 15.0001 10.0002 15.5588 10.0002 16.2501V25H6.25024L6.25774 14.4788L14.9977 5.54005L23.7502 14.5301L23.7377 25ZM12.5002 25.0001H17.5002V17.5001H12.5002V25.0001ZM25.5302 12.7313L15.894 2.87632C15.4227 2.39507 14.5777 2.39507 14.1065 2.87632L4.46899 12.7326C4.01274 13.2013 3.75024 13.8563 3.75024 14.5301V25.0001C3.75024 26.3788 4.80899 27.5001 6.11024 27.5001H11.2502H18.7502H23.889C25.1902 27.5001 26.2502 26.3788 26.2502 25.0001V14.5301C26.2502 13.8563 25.9877 13.2013 25.5302 12.7313Z" fill="white"/>
</mask>
<g mask="url(#mask0)">
<g id="&#240;&#159;&#142;&#168; Color">
<rect id="Base" width="30" height="30" fill="#149CFF"/>
</g>
</g>
</g>
</svg>
