<svg width="30" height="30" viewBox="0 0 30 30" fill="none" xmlns="http://www.w3.org/2000/svg">
<path fill-rule="evenodd" clip-rule="evenodd" d="M23.75 13.75H16.25V6.25C16.25 5.55875 15.69 5 15 5C14.31 5 13.75 5.55875 13.75 6.25V13.75H6.25C5.56 13.75 5 14.3087 5 15C5 15.6912 5.56 16.25 6.25 16.25H13.75V23.75C13.75 24.4412 14.31 25 15 25C15.69 25 16.25 24.4412 16.25 23.75V16.25H23.75C24.44 16.25 25 15.6912 25 15C25 14.3087 24.44 13.75 23.75 13.75Z" fill="white"/>
<mask id="mask0" mask-type="alpha" maskUnits="userSpaceOnUse" x="5" y="5" width="20" height="20">
<path fill-rule="evenodd" clip-rule="evenodd" d="M23.75 13.75H16.25V6.25C16.25 5.55875 15.69 5 15 5C14.31 5 13.75 5.55875 13.75 6.25V13.75H6.25C5.56 13.75 5 14.3087 5 15C5 15.6912 5.56 16.25 6.25 16.25H13.75V23.75C13.75 24.4412 14.31 25 15 25C15.69 25 16.25 24.4412 16.25 23.75V16.25H23.75C24.44 16.25 25 15.6912 25 15C25 14.3087 24.44 13.75 23.75 13.75Z" fill="white"/>
</mask>
</svg>
